HIERARCHY
ROOT Hips
{
	OFFSET 0.00000 0.00000 0.00000
	CHANNELS 6 Xposition Yposition Zposition Zrotation Yrotation Xrotation 
	JOINT LHipJoint
	{
		OFFSET 0 0 0
		CHANNELS 3 Zrotation Yrotation Xrotation
		JOINT LeftUpLeg
		{
			OFFSET 1.44361 -1.63093 0.70831
			CHANNELS 3 Zrotation Yrotation Xrotation
			JOINT LeftLeg
			{
				OFFSET 2.20103 -6.04728 0.00000
				CHANNELS 3 Zrotation Yrotation Xrotation
				JOINT LeftFoot
				{
					OFFSET 2.54154 -6.98283 0.00000
					CHANNELS 3 Zrotation Yrotation Xrotation
					JOINT LeftToeBase
					{
						OFFSET 0.05971 -0.16406 1.77582
						CHANNELS 3 Zrotation Yrotation Xrotation
						End Site
						{
							OFFSET 0.00000 -0.00000 0.90832
						}
					}
				}
			}
		}
	}
	JOINT RHipJoint
	{
		OFFSET 0 0 0
		CHANNELS 3 Zrotation Yrotation Xrotation
		JOINT RightUpLeg
		{
			OFFSET -1.65838 -1.63093 0.70830
			CHANNELS 3 Zrotation Yrotation Xrotation
			JOINT RightLeg
			{
				OFFSET -2.26926 -6.23475 0.00000
				CHANNELS 3 Zrotation Yrotation Xrotation
				JOINT RightFoot
				{
					OFFSET -2.34808 -6.45129 0.00000
					CHANNELS 3 Zrotation Yrotation Xrotation
					JOINT RightToeBase
					{
						OFFSET -0.18633 -0.51195 1.68539
						CHANNELS 3 Zrotation Yrotation Xrotation
						End Site
						{
							OFFSET -0.00000 -0.00000 0.88927
						}
					}
				}
			}
		}
	}
	JOINT LowerBack
	{
		OFFSET 0 0 0
		CHANNELS 3 Zrotation Yrotation Xrotation
		JOINT Spine
		{
			OFFSET -0.10393 2.01691 0.06920
			CHANNELS 3 Zrotation Yrotation Xrotation
			JOINT Spine1
			{
				OFFSET 0.04092 2.01302 -0.05283
				CHANNELS 3 Zrotation Yrotation Xrotation
				JOINT Neck
				{
					OFFSET 0 0 0
					CHANNELS 3 Zrotation Yrotation Xrotation
					JOINT Neck1
					{
						OFFSET -0.02870 1.58978 -0.03113
						CHANNELS 3 Zrotation Yrotation Xrotation
						JOINT Head
						{
							OFFSET 0.11532 1.54326 -0.29195
							CHANNELS 3 Zrotation Yrotation Xrotation
							End Site
							{
								OFFSET 0.04056 1.59999 -0.09535
							}
						}
					}
				}
				JOINT LeftShoulder
				{
					OFFSET 0 0 0
					CHANNELS 3 Zrotation Yrotation Xrotation
					JOINT LeftArm
					{
						OFFSET 3.30641 1.15764 0.01104
						CHANNELS 3 Zrotation Yrotation Xrotation
						JOINT LeftForeArm
						{
							OFFSET 4.63208 -0.00000 0.00000
							CHANNELS 3 Zrotation Yrotation Xrotation
							JOINT LeftHand
							{
								OFFSET 3.41924 -0.00000 -0.00000
								CHANNELS 3 Zrotation Yrotation Xrotation
								JOINT LeftFingerBase
								{
									OFFSET 0 0 0
									CHANNELS 3 Zrotation Yrotation Xrotation
									JOINT LeftHandIndex1
									{
										OFFSET 0.62537 -0.00000 -0.00000
										CHANNELS 3 Zrotation Yrotation Xrotation
										End Site
										{
											OFFSET 0.50419 -0.00000 -0.00000
										}
									}
								}
								JOINT LThumb
								{
									OFFSET 0 0 0
									CHANNELS 3 Zrotation Yrotation Xrotation
									End Site
									{
										OFFSET 0.51189 -0.00000 0.51189
									}
								}
							}
						}
					}
				}
				JOINT RightShoulder
				{
					OFFSET 0 0 0
					CHANNELS 3 Zrotation Yrotation Xrotation
					JOINT RightArm
					{
						OFFSET -3.78081 1.02180 -0.16609
						CHANNELS 3 Zrotation Yrotation Xrotation
						JOINT RightForeArm
						{
							OFFSET -4.40640 -0.00000 -0.00000
							CHANNELS 3 Zrotation Yrotation Xrotation
							JOINT RightHand
							{
								OFFSET -3.44675 -0.00000 0.00000
								CHANNELS 3 Zrotation Yrotation Xrotation
								JOINT RightFingerBase
								{
									OFFSET 0 0 0
									CHANNELS 3 Zrotation Yrotation Xrotation
									JOINT RightHandIndex1
									{
										OFFSET -0.51367 -0.00000 -0.00000
										CHANNELS 3 Zrotation Yrotation Xrotation
										End Site
										{
											OFFSET -0.41414 -0.00000 -0.00000
										}
									}
								}
								JOINT RThumb
								{
									OFFSET 0 0 0
									CHANNELS 3 Zrotation Yrotation Xrotation
									End Site
									{
										OFFSET -0.42046 -0.00000 0.42046
									}
								}
							}
						}
					}
				}
			}
		}
	}
}
MOTION
Frames: 12
Frame Time: .0083333
6.8855 16.5813 33.9583 0 0 0 0 0 0 -21 0 0 0 0 0 0 0 0 0 0 0 0 0 0 21 0 0 0 0 0 0 0 0 0 0 0 0 0 0 0 0 0 0 0 0 0 0 -16 0 0 21 0 0 11 0 0 0 -8 0 0 0 0 0 0 0 0 0 0 0 0 0 0 0 0 0 0 0 0 8 0 0 0 0 0 0 0 0 0 0 0 0 0 0 0 0 0
6.8855 16.5813 33.9583 179.8060 1.5718 -170.8990 0.0000 0.0000 0.0000 -20.5835 -9.8675 -2.3283 0.2065 2.9256 8.0717 0.5298 -7.3435 -13.1793 2.6045 -10.0255 -29.0594 0.0000 0.0000 0.0000 19.4569 5.5909 -3.5247 -0.2593 -3.2758 9.0476 -0.6029 0.9941 -14.3605 -1.4027 7.4918 -21.1807 -6.4702 1.1809 -10.0536 0.7633 2.3319 0.4477 4.7979 0.9510 5.8365 -3.0512 0.4015 -9.3191 4.4583 -1.2478 23.4341 1.8260 -0.9026 8.8807 -0.0000 -0.0000 0.0000 -83.6199 -1.5876 14.2907 11.5749 -19.1640 -1.9605 -0.0000 -0.0000 28.9875 28.6011 -14.9489 -8.0061 -7.1250 0.0000 -0.0000 0.6898 13.0660 -0.5161 -0.0000 -0.0000 0.0000 87.4652 -4.4114 -11.0537 -12.9862 21.2670 -2.4483 0.0000 0.0000 23.8336 -19.0180 -48.0991 14.3886 7.1250 -0.0000 -0.0000 44.0679 -76.2625 -33.5969
6.8842 16.5836 33.9603 179.8510 1.6408 -170.9030 0.0000 0.0000 0.0000 -20.5351 -9.8864 -2.3046 0.2058 2.9209 8.0585 0.5344 -7.2831 -13.2217 2.7234 -10.2333 -29.7354 0.0000 0.0000 0.0000 19.5216 5.4874 -3.6054 -0.2617 -3.2909 9.0896 -0.5902 0.7881 -14.2636 -1.6921 8.1930 -23.3018 -6.4399 1.1480 -10.0908 0.8323 2.2825 0.4586 4.8490 0.9245 5.8737 -3.1640 0.3808 -9.4479 4.4214 -1.2670 23.6197 1.8317 -0.9295 8.9699 -0.0000 0.0000 0.0000 -84.0336 -1.3957 15.6116 11.8256 -19.5426 -2.0436 -0.0000 -0.0000 27.6409 25.8518 -15.8360 -7.5321 -7.1250 0.0000 -0.0000 -1.2327 12.4882 0.9372 -0.0000 0.0000 0.0000 87.6017 -4.3247 -10.6379 -12.9387 21.1973 -2.4311 0.0000 0.0000 23.9705 -11.1927 -48.1527 8.3850 7.1250 -0.0000 -0.0000 51.1771 -73.3101 -36.6958
6.8844 16.5848 33.9649 179.8980 1.6648 -170.8930 0.0000 0.0000 0.0000 -20.4696 -9.9141 -2.3283 0.2080 2.9365 8.1020 0.5380 -7.2379 -13.2565 2.7370 -10.2567 -29.8120 0.0000 0.0000 0.0000 19.5749 5.2953 -3.7447 -0.2640 -3.3053 9.1299 -0.5771 0.7130 -14.1241 -1.9697 8.8027 -25.1800 -6.4176 1.1131 -10.0900 0.8842 2.2298 0.4566 4.8840 0.8982 5.8767 -3.5656 0.3224 -9.1605 4.8042 -1.3471 23.3070 2.0202 -0.9622 8.8144 -0.0000 0.0000 0.0000 -84.4109 -1.3039 16.6672 11.9355 -19.7079 -2.0805 -0.0000 -0.0000 26.4218 22.3678 -15.8622 -6.4174 -7.1250 0.0000 -0.0000 -3.5658 12.9241 2.6832 -0.0000 0.0000 0.0000 87.8154 -4.3000 -10.1677 -12.9035 21.1456 -2.4184 0.0000 0.0000 23.6051 -4.6720 -48.2210 3.4874 7.1250 -0.0000 -0.0000 56.6819 -71.0168 -38.7884
6.8845 16.5846 33.9677 179.9230 1.6444 -170.8720 0.0000 0.0000 0.0000 -20.4415 -9.9580 -2.3464 0.2081 2.9374 8.1044 0.5395 -7.2245 -13.2707 2.7125 -10.2144 -29.6740 0.0000 0.0000 0.0000 19.6033 5.0667 -3.8648 -0.2639 -3.3050 9.1290 -0.5703 0.6712 -14.0522 -2.2405 9.3501 -26.8967 -6.4007 1.0714 -10.1078 0.9123 2.1718 0.4475 4.8967 0.8698 5.8840 -3.4528 0.3501 -9.3882 4.6620 -1.2973 23.4699 1.9592 -0.9413 8.9100 0.0000 0.0000 0.0000 -84.7517 -1.2093 17.6533 11.9715 -19.7619 -2.0926 -0.0000 -0.0000 24.9387 18.8610 -15.8896 -5.3433 -7.1250 0.0000 -0.0000 -5.9192 13.3032 4.4225 0.0000 0.0000 0.0000 88.0827 -4.3789 -9.5512 -12.8870 21.1215 -2.4124 0.0000 0.0000 22.9053 -1.0428 -48.1213 0.7764 7.1250 -0.0000 -0.0000 59.2959 -69.7228 -39.4730
6.8847 16.5844 33.9690 179.9710 1.6633 -170.8710 0.0000 0.0000 0.0000 -20.3537 -9.8645 -2.3790 0.2061 2.9232 8.0650 0.5322 -7.2027 -13.1843 2.7115 -10.2127 -29.6683 0.0000 0.0000 0.0000 19.6833 4.7993 -4.0208 -0.2645 -3.3084 9.1386 -0.5830 0.5968 -14.2329 -2.4252 9.7006 -28.0125 -6.3413 1.0533 -10.1288 0.9290 2.1409 0.4317 4.8769 0.8567 5.8845 -3.3013 0.3895 -9.5149 4.5275 -1.2460 23.5957 1.8937 -0.9185 8.9740 -0.0000 0.0000 0.0000 -85.0444 -1.0728 18.5165 11.9288 -19.6977 -2.0782 -0.0000 -0.0000 23.7189 16.3015 -17.1897 -4.9398 -7.1250 0.0000 -0.0000 -7.6701 12.2351 5.9250 -0.0000 0.0000 0.0000 88.3947 -4.5715 -8.8927 -12.8819 21.1139 -2.4106 0.0000 0.0000 22.4399 0.6440 -47.5679 -0.4753 7.1250 -0.0000 -0.0000 59.3613 -68.8781 -38.5523
6.8850 16.5839 33.9706 180.1160 1.7148 -170.8880 0.0000 0.0000 0.0000 -20.1206 -9.4495 -2.5431 0.2081 2.9371 8.1037 0.5073 -7.2871 -12.9111 2.7358 -10.2546 -29.8051 0.0000 0.0000 0.0000 19.8963 4.4115 -4.2627 -0.2698 -3.3415 9.2309 -0.6141 0.5658 -14.6231 -2.5373 9.9055 -28.6712 -6.1933 1.0826 -10.1272 0.9635 2.1597 0.4085 4.8317 0.8718 5.8599 -3.1414 0.4111 -9.5581 4.4462 -1.2417 23.7004 1.8393 -0.9146 9.0174 0.0000 -0.0000 0.0000 -85.3242 -0.9853 19.0256 11.7512 -19.4305 -2.0188 -0.0000 -0.0000 23.5365 14.7518 -18.5808 -4.7960 -7.1250 0.0000 -0.0000 -8.7277 10.9826 6.9888 0.0000 -0.0000 0.0000 88.7816 -4.7229 -8.8328 -12.7913 20.9806 -2.3780 0.0000 0.0000 22.7201 1.2752 -46.5695 -0.9262 7.1250 -0.0000 -0.0000 57.7216 -68.1448 -36.3973
6.8848 16.5837 33.9695 180.2330 1.7698 -170.9270 0.0000 0.0000 0.0000 -19.9621 -9.2497 -2.5543 0.2083 2.9388 8.1083 0.4990 -7.2890 -12.8156 2.7524 -10.2830 -29.8981 0.0000 0.0000 0.0000 20.0453 4.3961 -4.2341 -0.2702 -3.3440 9.2380 -0.6348 0.7238 -14.8229 -2.2291 9.3278 -26.8261 -6.0761 1.1303 -10.1268 0.9950 2.2070 0.4029 4.8052 0.8986 5.8504 -3.0841 0.3844 -9.5309 4.5168 -1.3153 23.7070 1.8457 -0.9394 9.0180 0.0000 0.0000 0.0000 -85.6770 -1.0142 18.8664 11.4115 -18.9163 -1.9072 -0.0000 -0.0000 24.5757 13.9067 -19.7047 -4.7722 -7.1250 0.0000 -0.0000 -9.3064 9.9378 7.6652 0.0000 0.0000 0.0000 89.2004 -4.7990 -9.3328 -12.6054 20.7064 -2.3119 0.0000 0.0000 23.1400 1.2813 -45.6824 -0.9168 7.1250 -0.0000 -0.0000 55.9150 -67.6505 -34.4308
6.8850 16.5837 33.9692 180.2530 1.8145 -170.9360 0.0000 0.0000 0.0000 -19.9450 -9.2380 -2.5363 0.2074 2.9323 8.0904 0.5014 -7.2716 -12.8403 2.7681 -10.3098 -29.9859 0.0000 0.0000 0.0000 20.0687 4.3917 -4.2428 -0.2695 -3.3395 9.2253 -0.6283 0.7106 -14.7489 -2.3260 9.5145 -27.4183 -6.0757 1.1505 -10.1316 1.0139 2.2330 0.3964 4.8287 0.9117 5.8422 -3.0682 0.3786 -9.6019 4.6150 -1.3536 23.7517 1.8730 -0.9460 9.0489 0.0000 0.0000 0.0000 -86.0947 -1.0272 18.3167 11.0580 -18.3771 -1.7942 -0.0000 -0.0000 26.0940 13.6912 -20.4624 -4.8678 -7.1250 0.0000 -0.0000 -9.4668 9.1990 7.9438 0.0000 0.0000 0.0000 89.5906 -4.9718 -9.6112 -12.4685 20.5035 -2.2637 0.0000 0.0000 22.9439 0.7282 -45.3087 -0.5177 7.1250 -0.0000 -0.0000 54.7026 -67.6110 -33.4677
6.8853 16.5832 33.9724 180.2150 1.8364 -170.8790 0.0000 0.0000 0.0000 -19.9817 -9.2586 -2.6416 0.2091 2.9442 8.1235 0.5021 -7.2506 -12.8454 2.7736 -10.3192 -30.0166 0.0000 0.0000 0.0000 20.0077 4.4221 -4.3520 -0.2711 -3.3493 9.2528 -0.6295 0.7124 -14.7624 -2.3378 9.5368 -27.4894 -6.1385 1.1486 -10.1521 1.0178 2.2395 0.3726 4.8695 0.9146 5.8255 -3.0564 0.3849 -9.7341 4.7032 -1.3751 23.8520 1.8998 -0.9460 9.1100 -0.0000 -0.0000 0.0000 -86.4979 -0.9187 17.8807 10.8524 -18.0617 -1.7299 -0.0000 -0.0000 27.1178 13.7398 -20.6150 -4.9204 -7.1250 0.0000 -0.0000 -9.4406 9.0402 7.9516 -0.0000 -0.0000 0.0000 89.9906 -5.2707 -9.5859 -12.4390 20.4598 -2.2534 0.0000 0.0000 22.4676 -0.6186 -45.0040 0.4374 7.1250 -0.0000 -0.0000 52.9345 -67.8578 -32.4211
6.8858 16.5837 33.9738 180.1780 1.9016 -170.8530 0.0000 0.0000 0.0000 -20.0266 -9.2621 -2.7005 0.2124 2.9668 8.1864 0.5054 -7.2044 -12.8762 2.7467 -10.2733 -29.8664 0.0000 0.0000 0.0000 19.9460 4.4626 -4.4128 -0.2744 -3.3694 9.3090 -0.6304 0.7815 -14.7535 -2.2590 9.3860 -27.0102 -6.1851 1.1614 -10.1786 1.0171 2.2642 0.3687 4.8996 0.9253 5.8315 -3.1873 0.3332 -9.7340 4.8941 -1.4803 23.8825 1.9765 -0.9905 9.1268 0.0000 -0.0000 0.0000 -86.9067 -0.8078 17.2970 10.6615 -17.7676 -1.6712 -0.0000 -0.0000 27.6916 13.9360 -20.5436 -4.9766 -7.1250 0.0000 -0.0000 -9.3130 9.0901 7.8317 0.0000 -0.0000 0.0000 90.3871 -5.5267 -9.7374 -12.3875 20.3832 -2.2354 0.0000 0.0000 22.1322 -2.4358 -44.3473 1.7032 7.1250 -0.0000 -0.0000 50.0321 -68.0309 -30.4791
6.8873 16.5845 33.9732 180.2120 1.9551 -170.8700 0.0000 0.0000 0.0000 -19.9851 -9.2359 -2.6933 0.2139 2.9775 8.2161 0.5074 -7.1932 -12.8969 2.7136 -10.2163 -29.6802 0.0000 0.0000 0.0000 19.9911 4.5132 -4.4002 -0.2796 -3.4011 9.3975 -0.6343 0.8665 -14.7747 -2.1531 9.1779 -26.3534 -6.1619 1.1530 -10.1813 1.0523 2.2481 0.3876 4.9223 0.9159 5.8546 -3.5174 0.2159 -9.5828 5.1853 -1.6709 23.8385 2.1117 -1.0866 9.0950 0.0000 -0.0000 0.0000 -87.3496 -0.7298 16.4303 10.3993 -17.3617 -1.5920 -0.0000 -0.0000 28.0655 14.6760 -20.4475 -5.2276 -7.1250 0.0000 -0.0000 -8.8367 9.1028 7.4185 0.0000 -0.0000 0.0000 90.7220 -5.6696 -10.1280 -12.2608 20.1946 -2.1915 0.0000 0.0000 22.0049 -4.9099 -42.9687 3.3510 7.1250 -0.0000 -0.0000 45.1302 -67.9058 -26.8911
